<?xml version="1.0" encoding="utf-8"?>
<!-- Generator: Adobe Illustrator 21.1.0, SVG Export Plug-In . SVG Version: 6.00 Build 0)  -->
<svg version="1.1" id="Слой_1" xmlns="http://www.w3.org/2000/svg" xmlns:xlink="http://www.w3.org/1999/xlink" x="0px" y="0px"
	 viewBox="0 0 575.4 147.4" style="enable-background:new 0 0 575.4 147.4;" xml:space="preserve">
<style type="text/css">
	.st0{fill:#CC2E76;}
	.st1{fill:#FFFFFF;}
</style>
<g>
	<g>
		<path class="st0" d="M231.3,86.5c-0.7-2.6-1.1-5.1-1.4-7.7c-0.3-2.6-0.6-5.2-1-7.8c-0.4,2.6-0.8,5.3-1,7.8
			c-0.3,2.6-0.7,5.2-1.4,7.7l-5.2,20.4c-0.7,2.3-1.8,3.9-3.4,4.9c-1.6,1-3.7,1.5-6.3,1.5c-2.8,0-5-0.7-6.6-2
			c-1.6-1.3-2.7-3.2-3.5-5.7l-14.8-49c-0.2-0.4-0.3-1-0.3-1.7c0-2,0.9-3.7,2.6-5.3c1.7-1.6,3.8-2.4,6.3-2.4c1.9,0,3.6,0.5,5.2,1.5
			c1.6,1,2.6,2.4,3.1,4.3l5.5,21.1c0.9,3.2,1.4,6.5,1.6,9.7c0.2,3.2,0.5,6.5,1,9.7c0.5-3.2,0.9-6.5,1.2-9.7c0.3-3.2,0.9-6.5,1.7-9.7
			l5.1-20.3c0.5-1.9,1.6-3.4,3.2-4.7c1.6-1.2,3.7-1.8,6.3-1.8c2.5,0,4.5,0.6,6.1,1.8c1.6,1.2,2.6,2.8,3.1,4.7l5,20.3
			c0.8,3.2,1.3,6.5,1.7,9.8c0.4,3.3,0.8,6.5,1.3,9.8c0.4-3.2,0.7-6.5,1-9.8s0.7-6.5,1.6-9.8l5.5-21.1c0.4-1.6,1.4-3,3.1-4.1
			c1.6-1.1,3.4-1.7,5.2-1.7c2.3,0,4.3,0.7,6.1,2.2c1.7,1.5,2.6,3.3,2.6,5.5c0,0.1,0,0.3-0.1,0.6c0,0.3-0.1,0.5-0.1,0.7l-14.8,49.4
			c-0.8,2.5-1.9,4.3-3.3,5.6c-1.4,1.3-3.7,1.9-6.8,1.9c-2.2,0-4.2-0.6-6-1.7c-1.8-1.1-3-2.7-3.6-4.7L231.3,86.5z"/>
		<path class="st0" d="M326.8,97c0,0.9,0.1,1.7,0.3,2.2c0.2,0.5,0.5,0.9,0.9,1.1c0.4,0.3,0.8,0.4,1.3,0.5c0.5,0.1,1,0.3,1.5,0.5
			c2,0.8,2.9,2.4,2.9,4.8c0,2-0.7,3.7-2,4.8c-1.4,1.2-3.7,1.8-7.1,1.8c-2.4,0-4.4-0.4-6.1-1.1c-1.7-0.8-3.3-2.2-4.7-4.2
			c-2.4,2-5,3.4-7.7,4.3c-2.8,0.9-5.9,1.4-9.5,1.4c-7.5,0-13.1-1.8-17-5.5c-3.8-3.7-5.7-8.5-5.7-14.7v-0.4c0-13,8.4-19.5,25.3-19.5
			c1.7,0,3.4,0.1,5,0.3c1.7,0.2,3.3,0.5,5,1v-4.1c0-5.9-3.2-8.8-9.7-8.8c-1.8,0-3.3,0.2-4.5,0.6c-1.2,0.4-2.5,0.9-3.8,1.5
			c-0.5,0.2-1.1,0.4-1.9,0.8c-0.8,0.3-1.7,0.5-2.9,0.5c-1.4,0-2.5-0.2-3.4-0.7c-0.9-0.5-1.7-1.1-2.3-1.8c-0.6-0.7-1-1.5-1.3-2.4
			c-0.3-0.9-0.4-1.7-0.4-2.5c0-1.9,0.6-3.5,1.9-4.8c1.3-1.4,3-2.5,5-3.3c2.1-0.8,4.4-1.5,7-1.8c2.6-0.4,5.2-0.6,7.8-0.6
			c9.3,0,15.9,2.2,20,6.7c4,4.5,6.1,11,6.1,19.7V97z M300.1,85.6c-1.9,0-3.4,0.2-4.5,0.6c-1.1,0.4-2,0.9-2.7,1.6
			c-0.6,0.7-1.1,1.5-1.3,2.4c-0.2,0.9-0.3,1.8-0.3,2.7v0.4c0,2.1,0.6,3.6,1.9,4.5c1.3,0.9,3.3,1.3,6,1.3c1.7,0,3.4-0.2,5-0.7
			c1.6-0.5,3.3-1.3,5-2.6v-9.2C305.8,85.9,302.7,85.6,300.1,85.6z"/>
		<path class="st0" d="M372.3,52.6c0.6-1.9,1.7-3.2,3.3-4.1c1.6-0.8,3.3-1.3,5-1.3c2.2,0,4.2,0.7,6.1,2.2c1.8,1.4,2.7,3.3,2.7,5.6
			c0,0.9-0.1,1.7-0.4,2.3l-15.6,45.4c-1.8,5.2-3.5,10-5.2,14.3c-1.7,4.3-3.6,8.1-5.9,11.2c-2.3,3.1-5,5.6-8.2,7.3
			c-3.2,1.7-7.2,2.6-12.1,2.6c-2.6,0-4.7-0.7-6.4-2.2c-1.7-1.4-2.6-3.3-2.6-5.5c0-2,0.7-3.7,2.2-5.2c1.5-1.5,3.5-2.3,6.2-2.5
			c2.8-0.2,5-1.3,6.7-3.5c1.7-2.2,3.3-5.8,4.8-10.8L333.5,58c-0.3-0.7-0.4-1.3-0.5-1.8c-0.1-0.5-0.1-1-0.1-1.4c0-2.2,0.9-4,2.6-5.4
			c1.7-1.4,3.8-2.1,6.3-2.1c1.7,0,3.3,0.4,4.8,1.3c1.5,0.9,2.6,2.2,3.3,4l8,21.4c0.9,2.3,1.7,4.7,2.2,7.3c0.6,2.6,1.2,5,1.9,7.4
			c0.6-2.4,1.1-4.8,1.7-7.4c0.5-2.6,1.1-5,1.9-7.3L372.3,52.6z"/>
		<path class="st1" d="M444.9,97c0,0.9,0.1,1.7,0.3,2.2c0.2,0.5,0.5,0.9,0.9,1.1c0.4,0.3,0.8,0.4,1.3,0.5c0.5,0.1,1,0.3,1.5,0.5
			c2,0.8,2.9,2.4,2.9,4.8c0,2-0.7,3.7-2,4.8c-1.4,1.2-3.7,1.8-7.1,1.8c-2.4,0-4.4-0.4-6.1-1.1c-1.7-0.8-3.3-2.2-4.7-4.2
			c-2.4,2-5,3.4-7.7,4.3c-2.8,0.9-5.9,1.4-9.5,1.4c-7.5,0-13.1-1.8-17-5.5c-3.8-3.7-5.7-8.5-5.7-14.7v-0.4c0-13,8.4-19.5,25.3-19.5
			c1.7,0,3.4,0.1,5,0.3c1.7,0.2,3.3,0.5,5,1v-4.1c0-5.9-3.2-8.8-9.7-8.8c-1.8,0-3.3,0.2-4.5,0.6c-1.2,0.4-2.5,0.9-3.8,1.5
			c-0.5,0.2-1.1,0.4-1.9,0.8c-0.8,0.3-1.7,0.5-2.9,0.5c-1.4,0-2.5-0.2-3.4-0.7c-0.9-0.5-1.7-1.1-2.3-1.8c-0.6-0.7-1-1.5-1.3-2.4
			c-0.3-0.9-0.4-1.7-0.4-2.5c0-1.9,0.6-3.5,1.9-4.8c1.3-1.4,3-2.5,5-3.3c2.1-0.8,4.4-1.5,7-1.8c2.6-0.4,5.2-0.6,7.8-0.6
			c9.3,0,15.9,2.2,20,6.7c4,4.5,6.1,11,6.1,19.7V97z M418.2,85.6c-1.9,0-3.4,0.2-4.5,0.6c-1.1,0.4-2,0.9-2.7,1.6
			c-0.6,0.7-1.1,1.5-1.3,2.4c-0.2,0.9-0.3,1.8-0.3,2.7v0.4c0,2.1,0.6,3.6,1.9,4.5c1.3,0.9,3.3,1.3,6,1.3c1.7,0,3.4-0.2,5-0.7
			c1.6-0.5,3.3-1.3,5-2.6v-9.2C423.9,85.9,420.9,85.6,418.2,85.6z"/>
		<path class="st1" d="M487.5,113.1c-1.7,0-3.4-0.1-5.1-0.4c-1.7-0.3-3.7-1-6-2.1v21.1c0,2.2-0.8,4.1-2.3,5.5
			c-1.5,1.5-3.7,2.2-6.5,2.2c-2.8,0-5-0.8-6.5-2.3c-1.5-1.5-2.3-3.4-2.3-5.5V66.8c0-1.4-0.1-2.6-0.3-3.5c-0.2-0.9-0.6-1.7-1.1-2.5
			c-0.5-0.7-0.9-1.3-1.3-1.8c-0.3-0.6-0.5-1.3-0.5-2.2c0-2.4,0.9-4.3,2.7-5.7c1.8-1.4,3.7-2.1,5.7-2.1c1.4,0,2.6,0.3,3.6,1
			c1.1,0.6,2.1,1.5,3,2.6c3.1-1.7,6-3.1,8.7-4.1s5.8-1.5,9.3-1.5c3.7,0,6.9,0.6,9.8,1.8c2.9,1.2,5.3,2.9,7.3,5.1
			c2,2.2,3.5,4.8,4.5,7.9c1.1,3.1,1.6,6.5,1.6,10.1v14.8c0,3.7-0.4,7.2-1.2,10.5c-0.8,3.2-2.2,6-4.1,8.4c-1.9,2.4-4.4,4.2-7.5,5.5
			C496,112.5,492.1,113.1,487.5,113.1z M476.4,96.9c2,0.6,3.7,1,5.2,1.3c1.5,0.3,2.9,0.4,4.1,0.4c3.1,0,5.4-1,6.6-2.9
			c1.3-1.9,1.9-4.9,1.9-9V71.9c0-6.8-2.8-10.2-8.3-10.2c-2.6,0-5.9,0.9-9.8,2.7c0.1,0.4,0.1,0.8,0.2,1.2c0,0.4,0.1,0.8,0.1,1.2V96.9
			z"/>
		<path class="st1" d="M551.1,113.1c-1.7,0-3.4-0.1-5.1-0.4c-1.7-0.3-3.7-1-6-2.1v21.1c0,2.2-0.8,4.1-2.3,5.5
			c-1.5,1.5-3.7,2.2-6.5,2.2c-2.8,0-5-0.8-6.5-2.3c-1.5-1.5-2.3-3.4-2.3-5.5V66.8c0-1.4-0.1-2.6-0.3-3.5c-0.2-0.9-0.6-1.7-1.1-2.5
			c-0.5-0.7-0.9-1.3-1.3-1.8c-0.3-0.6-0.5-1.3-0.5-2.2c0-2.4,0.9-4.3,2.7-5.7c1.8-1.4,3.7-2.1,5.7-2.1c1.4,0,2.6,0.3,3.6,1
			c1.1,0.6,2.1,1.5,3,2.6c3.1-1.7,6-3.1,8.7-4.1s5.8-1.5,9.3-1.5c3.7,0,6.9,0.6,9.8,1.8c2.9,1.2,5.3,2.9,7.3,5.1
			c2,2.2,3.5,4.8,4.5,7.9c1.1,3.1,1.6,6.5,1.6,10.1v14.8c0,3.7-0.4,7.2-1.2,10.5c-0.8,3.2-2.2,6-4.1,8.4c-1.9,2.4-4.4,4.2-7.5,5.5
			C559.5,112.5,555.7,113.1,551.1,113.1z M540,96.9c2,0.6,3.7,1,5.2,1.3c1.5,0.3,2.9,0.4,4.1,0.4c3.1,0,5.4-1,6.6-2.9
			c1.3-1.9,1.9-4.9,1.9-9V71.9c0-6.8-2.8-10.2-8.3-10.2c-2.6,0-5.9,0.9-9.8,2.7c0.1,0.4,0.1,0.8,0.2,1.2c0,0.4,0.1,0.8,0.1,1.2V96.9
			z"/>
	</g>
	<path class="st1" d="M34.1,113.7c-1.7,0-3.4-0.6-4.6-1.9L1.9,84.3C0.7,83.1,0,81.4,0,79.7c0-1.7,0.7-3.4,1.9-4.6l27.5-27.5
		c2.6-2.6,6.7-2.6,9.3,0c2.6,2.6,2.6,6.7,0,9.3L15.8,79.7l22.9,22.9c2.6,2.6,2.6,6.7,0,9.3C37.4,113.1,35.7,113.7,34.1,113.7z"/>
	<path class="st0" d="M106.1,41.7c-1.7,0-3.4-0.6-4.6-1.9L78.5,17L55.7,39.8c-2.6,2.6-6.7,2.6-9.3,0c-2.6-2.6-2.6-6.7,0-9.3
		L73.9,3.1c1.2-1.2,2.9-1.9,4.6-1.9c1.7,0,3.4,0.7,4.6,1.9l27.5,27.5c2.6,2.6,2.6,6.7,0,9.3C109.4,41.1,107.7,41.7,106.1,41.7z"/>
	<path class="st0" d="M66.6,146.3c-1.7,0-3.4-0.6-4.6-1.9l-15.5-15.5c-2.6-2.6-2.6-6.7,0-9.3c2.6-2.6,6.7-2.6,9.3,0l11.1,11.1
		l7.4-6.7c2.5-2.3,6.3-2.3,8.8,0l7.4,6.7l11-11c2.6-2.6,6.7-2.6,9.3,0c2.6,2.6,2.6,6.7,0,9.3l-15.5,15.5c-2.5,2.5-6.5,2.6-9,0.2
		l-7.6-6.9l-7.6,6.9C69.8,145.7,68.2,146.3,66.6,146.3z"/>
	<path class="st1" d="M122.7,113.8c-1.7,0-3.4-0.6-4.6-1.9c-2.6-2.6-2.6-6.7,0-9.3l22.9-22.9L118,56.8c-2.6-2.6-2.6-6.7,0-9.3
		c2.6-2.6,6.7-2.6,9.3,0l27.5,27.5c1.2,1.2,1.9,2.9,1.9,4.6c0,1.7-0.7,3.4-1.9,4.6l-27.5,27.5C126,113.1,124.3,113.8,122.7,113.8z"
		/>
</g>
</svg>
