<svg id="icojam_unigrid_mini" xmlns="http://www.w3.org/2000/svg" viewBox="0 0 54.75 57"><title>Векторный смарт-объект</title><path d="M51,29.53s0,0,0,0a1,1,0,0,0,0-.27s0,0,0-.06a1,1,0,0,0-.06-.21h0a1,1,0,0,0-.06-.1,1,1,0,0,0-.08-.13l-10-12-.05,0a1,1,0,0,0-.2-.15l-.15-.09-.05,0a1,1,0,0,0-.2,0l-.12,0H14l-.12,0a1,1,0,0,0-.2,0l-.05,0-.15.09a1,1,0,0,0-.2.15l-.05,0-10,12a1,1,0,0,0-.08.13,1,1,0,0,0-.06.1h0a1,1,0,0,0-.06.21s0,0,0,.07a1,1,0,0,0,0,.25s0,0,0,0a1,1,0,0,0,0,.12,1,1,0,0,0,0,.15h0a1,1,0,0,0,.16.24l23,26,0,0,.08.08.17.11.09,0h0l0,0h0a1,1,0,0,0,.63,0h0l0,0h0l.09,0,.17-.11.08-.08,0,0,23-26a1,1,0,0,0,.16-.24h0a1,1,0,0,0,0-.14A1,1,0,0,0,51,29.53ZM29,18.38h9.6l-3,8.79Zm5,10H20L27,19ZM18.41,27.17l-3-8.79H25ZM34.5,30.38,27,52.29,19.5,30.38Zm5.87-11,7.49,9H37.29Zm-26.74,0,3.08,9H6.14Zm3.76,11,7,20.59L6.22,30.38ZM29.57,51l7-20.59H47.78Z"/><path d="M27.2,10.14a1,1,0,0,0,1-1V1.64a1,1,0,1,0-2,0v7.5A1,1,0,0,0,27.2,10.14Z"/><path d="M15.71,11.29a1,1,0,1,0,1.73-1L13.7,3.79a1,1,0,1,0-1.73,1Z"/><path d="M53.74,11.45a1,1,0,0,0-1.37-.37l-6.49,3.75a1,1,0,0,0,1,1.73l6.49-3.75A1,1,0,0,0,53.74,11.45Z"/><path d="M37.58,11.22a1,1,0,0,0,1.37-.37L42.7,4.36a1,1,0,0,0-1.73-1L37.21,9.86A1,1,0,0,0,37.58,11.22Z"/><path d="M8.28,16.27a1,1,0,0,0,.5-1.87L2.29,10.65a1,1,0,0,0-1,1.73l6.49,3.75A1,1,0,0,0,8.28,16.27Z"/></svg>