<svg id="icojam_unigrid_mini" xmlns="http://www.w3.org/2000/svg" viewBox="0 0 48.16 60.2"><title>Векторный смарт-объект</title><path d="M44.17,23.1a1,1,0,0,0-2,0,3,3,0,0,1-3,3h-3V3.1a3,3,0,0,0-3-3h-22a3,3,0,0,0-3,3v23h-3a3,3,0,0,1-3-3,1,1,0,0,0-2,0,5,5,0,0,0,5,5h34A5,5,0,0,0,44.17,23.1Zm-34,3V3.1a1,1,0,0,1,1-1h22a1,1,0,0,1,1,1v23Z"/><path d="M43.4,39.84a1,1,0,0,0,.15,2h.15a1,1,0,0,0,.84-1.15A1,1,0,0,0,43.4,39.84Z"/><path d="M43.47,47.81a1,1,0,1,0-.16,2h.08a1,1,0,0,0,.08-2Z"/><path d="M43.72,43.82a1,1,0,0,0-.09,2h0a1,1,0,0,0,0-2Z"/><path d="M43.24,53.81a1,1,0,1,0-1-1,1,1,0,0,0,1,1Z"/><path d="M42.56,36.53a1,1,0,0,0-1.42.08A1,1,0,0,0,41.22,38a1,1,0,1,0,1.34-1.49Z"/><path d="M43.5,55.81a1,1,0,0,0,.43,1.9,1.06,1.06,0,0,0,.42-.09,1,1,0,1,0-.85-1.81Z"/><path d="M47.16,58a1,1,0,0,0-.34,2H47a1,1,0,0,0,.17-2Z"/><path d="M38.17,35.1a1,1,0,1,0,1,1A1,1,0,0,0,38.17,35.1Z"/><path d="M30.17,42.1a6,6,0,1,0-6-6A6,6,0,0,0,30.17,42.1Zm0-10a4,4,0,1,1-4,4A4,4,0,0,1,30.17,32.1Z"/><path d="M35.9,53.69a5,5,0,0,1-4.65.33,2.82,2.82,0,0,1-1.44-2.72.94.94,0,0,0,0-.1s0-.33,0-.5a4.6,4.6,0,0,0-7.6-3.49,4.6,4.6,0,0,0-7.6,3.49c0,.17,0,.49,0,.5s0,.07,0,.1a2.86,2.86,0,0,1-1.88,2.86,4.26,4.26,0,0,1-4.07-.34A1,1,0,0,0,7,54.93a8.8,8.8,0,0,0,15.21,1.43,8.8,8.8,0,0,0,15.21-1.43,1,1,0,0,0-1.47-1.24ZM29.37,58.1a6.79,6.79,0,0,1-6.28-4.18,1,1,0,0,0-1.85,0A6.79,6.79,0,0,1,10.6,56.5a6.84,6.84,0,0,0,2.81-.5,4.88,4.88,0,0,0,3.12-4.65c0-.13,0-.46,0-.65a2.6,2.6,0,0,1,4.77-1.44,1,1,0,0,0,1.67,0,2.6,2.6,0,0,1,4.77,1.44c0,.19,0,.52,0,.65a4.79,4.79,0,0,0,2.5,4.44,6.31,6.31,0,0,0,3.52.63A6.8,6.8,0,0,1,29.37,58.1Z"/></svg>