<svg id="icojam_unigrid_mini" xmlns="http://www.w3.org/2000/svg" viewBox="0 0 65 80"><title>Векторный смарт-объект</title><path d="M51.5,29.47h-38c-1.42,0-2,.59-2,2.09.05,9.22,0,18.45,0,27.67a6.43,6.43,0,0,0,5.08,6.43,33.18,33.18,0,0,0,3.32.45c0,1.52,0,3,0,4.52a38.82,38.82,0,0,0,.1,4.84A5.63,5.63,0,0,0,25.64,80,5.53,5.53,0,0,0,31,74.67C31,71.82,31,69,31,66H34c0,2.93,0,5.79,0,8.64a5.48,5.48,0,0,0,10.62,1.69A10.48,10.48,0,0,0,45,73.3c.05-2.43,0-4.85,0-7.36h1.48a6.69,6.69,0,0,0,6.93-7c0-9.12,0-18.24,0-27.36C53.5,30.07,52.92,29.47,51.5,29.47ZM50.89,58a9.71,9.71,0,0,1-.25,2.16,3.72,3.72,0,0,1-3.69,3c-.73,0-1.46,0-2.19,0-2,0-2.29.35-2.29,2.26,0,2.6,0,5.21,0,7.81a8.69,8.69,0,0,1,0,1.25c-.28,1.87-1.43,2.87-3.14,2.75a2.87,2.87,0,0,1-2.64-3.1c0-2.92,0-5.83,0-8.75,0-1.8-.39-2.18-2.2-2.21-1.3,0-2.61,0-3.91,0-1.7,0-2.11.45-2.11,2.14,0,3,0,5.94,0,8.91a2.89,2.89,0,0,1-5.78.33,8.06,8.06,0,0,1,0-1.25c0-2.71-.05-5.42,0-8.13,0-1.43-.62-2-1.94-2h-2c-2.63,0-4-1.22-4.42-3.82a5.35,5.35,0,0,1-.07-.78q0-12.81,0-25.63a5.18,5.18,0,0,1,.11-.65H50.83c0,.52.07,1,.07,1.52Q50.91,45.88,50.89,58Z"/><path d="M14.08,28H36c5.1,0,10.21,0,15.31,0,2,0,2.28-.31,2.19-2.29a20.58,20.58,0,0,0-2.9-9.75,22,22,0,0,0-8.46-8c1.08-1.81,2.12-3.54,3.15-5.28.51-.86.89-1.76-.25-2.41s-1.59.24-2.05,1C41.82,3.09,40.71,5,39.55,6.88a20.49,20.49,0,0,0-14.11,0C24.29,5,23.21,3.13,22.1,1.31,21.61.5,21.1-.45,19.94.25s-.64,1.59-.15,2.43c1,1.73,2.06,3.44,3,5.09-.14.2-.16.26-.21.28-.4.24-.81.46-1.2.72-6,4-9.44,9.4-9.88,16.61C11.4,27.76,11.69,28,14.08,28Zm8.53-16.68A17.54,17.54,0,0,1,41.93,11c5.29,3.11,8.14,8,8.77,14.2H14.27A17.38,17.38,0,0,1,22.61,11.28Z"/><path d="M64.72,34.51a4.85,4.85,0,1,0-9.69,0q0,9.68,0,19.35a4.85,4.85,0,1,0,9.7,0c0-3.17,0-6.35,0-9.52S64.75,37.79,64.72,34.51ZM62,53.75a2.24,2.24,0,0,1-2.25,2.47c-1.26-.05-2-1-2-2.63,0-3.13,0-6.25,0-9.38s0-6.25,0-9.38c0-1.63.79-2.58,2-2.63A2.24,2.24,0,0,1,62,34.68Q62.11,44.21,62,53.75Z"/><path d="M5.06,29.51a4.77,4.77,0,0,0-4.79,5c0,3.23,0,6.45,0,9.68s0,6.56,0,9.83A4.78,4.78,0,0,0,5,58.89a4.83,4.83,0,0,0,5-4.73q.09-9.91,0-19.82A4.79,4.79,0,0,0,5.06,29.51ZM7.22,53.59c0,1.62-.79,2.57-2,2.63s-2.23-.95-2.24-2.62q0-9.38,0-18.77c0-1.68.93-2.69,2.23-2.64s2,1,2.05,2.63c0,3.13,0,6.26,0,9.38S7.25,50.46,7.22,53.59Z"/><circle cx="23.63" cy="17.77" r="1.9"/><circle cx="41.4" cy="17.77" r="1.9"/></svg>