<svg id="icojam_unigrid_mini" xmlns="http://www.w3.org/2000/svg" viewBox="0 0 49 72"><title>Векторный смарт-объект</title><path d="M48.28,32.21,36.72,13.42,42.34,2.17A1.5,1.5,0,0,0,41,0H6.5A1.5,1.5,0,0,0,5.23,2.3l7,11.21L.72,32.21a1.5,1.5,0,0,0-.07,1.44l18,37.5A1.5,1.5,0,0,0,20,72h9a1.5,1.5,0,0,0,1.35-.85l18-37.5A1.5,1.5,0,0,0,48.28,32.21ZM9.21,3H38.57l-4.5,9H14.83ZM24.5,36A4.5,4.5,0,1,1,29,31.5,4.5,4.5,0,0,1,24.5,36Zm3.56,33H26V38.85a7.5,7.5,0,1,0-3,0V69H20.94L3.71,33.09,14.84,15H34.16L45.29,33.09Z"/></svg>