<svg id="icojam_unigrid_mini" xmlns="http://www.w3.org/2000/svg" viewBox="0 0 68 84"><title>Векторный смарт-объект</title><path d="M.17,46.31C.08,34.11,7.8,24.53,19.63,22.06a12.13,12.13,0,0,1,7,.77c1.49.58,3,1.22,4.4,1.89a8.8,8.8,0,0,0,6.59.38c2.64-.84,5.3-1.64,7.95-2.44,7.54-2.28,13.57.07,18.41,6,2.25,2.76,2.21,2.74-.08,5.42a39.51,39.51,0,0,0-3.25,4.26,14.21,14.21,0,0,0,2.36,18.31c.79.74,1.67,1.38,2.5,2.07,2.32,1.92,2.8,3.47,1.81,6.34A32.73,32.73,0,0,1,54.45,81.9a10.05,10.05,0,0,1-10.78.91,14.87,14.87,0,0,0-12.93-.26C24.29,85.26,18.47,84.23,13.53,79A50,50,0,0,1,.68,52.77c-.25-1.43-.37-2.89-.5-4.34C.12,47.73.17,47,.17,46.31Zm62.56-15c-4.76-6.63-10-8-16.12-6.27-2.53.72-5.05,1.48-7.54,2.33a12.52,12.52,0,0,1-9.73-.57A25.62,25.62,0,0,0,24.92,25a11.37,11.37,0,0,0-4.56-.4A21.08,21.08,0,0,0,2.7,45.2C2.57,56.15,6.24,65.88,13,74.42A37.08,37.08,0,0,0,19,80a6.67,6.67,0,0,0,5.88,1.26c2.14-.51,4.24-1.15,6.38-1.67a31.54,31.54,0,0,1,4.94-1,18.25,18.25,0,0,1,9.25,2.1,6,6,0,0,0,5.82,0A29.13,29.13,0,0,0,65.16,63.51a2.66,2.66,0,0,0-.58-2.1,29.13,29.13,0,0,0-3-2.6,16.76,16.76,0,0,1-3.55-21C59.39,35.57,61.11,33.54,62.73,31.29Z"/><path d="M32.65,17.75c.06-9,6.21-16,15.58-17.59,3.93-.67,5.4.78,4.55,4.69a22.26,22.26,0,0,1-8.52,13.69,11.34,11.34,0,0,1-9,2.36C32.83,20.46,32.63,20.18,32.65,17.75ZM50.43,2.4c-.79.12-1.39.2-2,.31-8,1.51-12.4,6.36-13.2,14.3-.12,1.17.27,1.47,1.34,1.52A9.59,9.59,0,0,0,43.43,16,20.92,20.92,0,0,0,50.23,4.73,6.45,6.45,0,0,0,50.43,2.4Z"/></svg>