<svg id="icojam_unigrid_mini" xmlns="http://www.w3.org/2000/svg" viewBox="0 0 72 72"><title>Векторный смарт-объект</title><path d="M71.71,8.11A1.5,1.5,0,0,0,70.5,7.5h-6v-6A1.5,1.5,0,0,0,63.89.29,1.49,1.49,0,0,0,62.55.07C62,.25,48.31,4.61,46.37,12.47c-.7,2.84.16,5.69,2.55,8.49l-4,4A27,27,0,0,0,6.91,63L.44,69.44a1.5,1.5,0,1,0,2.12,2.12L9,65.09a26.83,26.83,0,0,0,35.94,0l6.47,6.47a1.5,1.5,0,0,0,2.12-2.12L47.09,63a26.83,26.83,0,0,0,0-35.94l4-4a10.24,10.24,0,0,0,6.55,2.81,7.94,7.94,0,0,0,1.92-.24C67.4,23.7,71.75,10,71.93,9.45A1.5,1.5,0,0,0,71.71,8.11ZM61.5,8.38,57,12.88V5.71a41.89,41.89,0,0,1,4.5-2.09ZM49.28,13.19c.52-2.12,2.42-4,4.72-5.65v8.34L51.08,18.8C49.47,16.84,48.84,15,49.28,13.19ZM51,45a23.92,23.92,0,0,1-6.95,16.87s-.08,0-.11.07,0,.08-.07.11a23.94,23.94,0,0,1-33.73,0s0-.08-.07-.11-.08,0-.11-.07A24,24,0,0,1,42.85,27l-4.24,4.24a18,18,0,1,0,2.12,2.12L45,29.15A23.87,23.87,0,0,1,51,45ZM33,45a6,6,0,1,1-6-6,5.93,5.93,0,0,1,3,.85l-2.3,2.3A2.88,2.88,0,0,0,27,42a3,3,0,1,0,3,3,2.88,2.88,0,0,0-.15-.73l2.3-2.3A5.93,5.93,0,0,1,33,45Zm-.8-7.32a9.05,9.05,0,1,0,2.12,2.12l4.24-4.24A14.85,14.85,0,0,1,42,45,15,15,0,1,1,27,30a14.85,14.85,0,0,1,9.44,3.44Zm26.62-15c-1.8.45-3.65-.19-5.62-1.79L63.62,10.5h4.76C66.74,14.71,63.21,21.64,58.82,22.72Z"/></svg>