<svg id="icojam_unigrid_mini" xmlns="http://www.w3.org/2000/svg" viewBox="0 0 69 69"><title>Векторный смарт-объект</title><path d="M67.56,28.75H59.35A36.82,36.82,0,0,0,57.12,22L63,16.21a1.44,1.44,0,0,0,0-2L54.83,6a1.44,1.44,0,0,0-2,0l-5.85,5.84a36.75,36.75,0,0,0-6.7-2.23V1.44A1.44,1.44,0,0,0,38.81,0H30.19a1.44,1.44,0,0,0-1.44,1.44V9.65A36.75,36.75,0,0,0,22,11.88L16.2,6a1.44,1.44,0,0,0-2,0L6,14.17a1.44,1.44,0,0,0,0,2L11.88,22a37.11,37.11,0,0,0-2.24,6.7H1.44A1.44,1.44,0,0,0,0,30.19v8.63a1.44,1.44,0,0,0,1.44,1.44H9.64A37.05,37.05,0,0,0,11.88,47L6,52.8a1.44,1.44,0,0,0,0,2L14.17,63a1.48,1.48,0,0,0,2,0L22,57.11a37,37,0,0,0,6.7,2.24v8.21A1.44,1.44,0,0,0,30.19,69h8.63a1.44,1.44,0,0,0,1.44-1.44V59.36a37.06,37.06,0,0,0,6.7-2.24L52.8,63a1.44,1.44,0,0,0,2,0L63,54.83a1.44,1.44,0,0,0,0-2L57.12,47a37.05,37.05,0,0,0,2.24-6.7h8.21A1.44,1.44,0,0,0,69,38.81V30.19A1.44,1.44,0,0,0,67.56,28.75Zm-1.44,8.63h-7.9a1.44,1.44,0,0,0-1.4,1.1c-.39,1.61-1.42,5.87-2.71,8a1.44,1.44,0,0,0,.21,1.77l5.58,5.59-6.1,6.1-5.59-5.58a1.43,1.43,0,0,0-1.77-.21c-2.11,1.29-6.38,2.33-8,2.71a1.44,1.44,0,0,0-1.1,1.4v7.9H31.63v-7.9a1.44,1.44,0,0,0-1.1-1.4c-1.6-.39-5.87-1.42-8-2.72a1.43,1.43,0,0,0-1.77.21l-5.58,5.59-6.1-6.1,5.59-5.59a1.44,1.44,0,0,0,.21-1.77c-1.29-2.11-2.33-6.38-2.71-8a1.44,1.44,0,0,0-1.4-1.1H2.88V31.63h7.9a1.44,1.44,0,0,0,1.4-1.1c.39-1.6,1.42-5.87,2.72-8a1.44,1.44,0,0,0-.21-1.77L9.09,15.19l6.1-6.1,5.59,5.58a1.44,1.44,0,0,0,1.76.21c2.13-1.3,6.38-2.32,8-2.71a1.44,1.44,0,0,0,1.1-1.4V2.88h5.75v7.9a1.44,1.44,0,0,0,1.1,1.4c1.6.39,5.85,1.41,8,2.71a1.44,1.44,0,0,0,1.76-.21l5.59-5.58,6.1,6.1-5.58,5.58a1.44,1.44,0,0,0-.21,1.77c1.3,2.13,2.33,6.39,2.71,8a1.44,1.44,0,0,0,1.4,1.1h7.9Z"/><path d="M34.5,20.13A14.38,14.38,0,1,0,48.88,34.5,14.39,14.39,0,0,0,34.5,20.13ZM34.5,46A11.5,11.5,0,1,1,46,34.5,11.51,11.51,0,0,1,34.5,46Z"/></svg>