<svg id="icojam_unigrid_mini" xmlns="http://www.w3.org/2000/svg" viewBox="0 0 27 21"><title>Векторный смарт-объект</title><path d="M22.47.35H4.53A4.51,4.51,0,0,0,0,4.88V16.12a4.51,4.51,0,0,0,4.53,4.53H22.3A4.77,4.77,0,0,0,27,16.12V4.88A4.51,4.51,0,0,0,22.47.35ZM25.24,16.9l-5.51-6.75,5.59-3.24v9.38A2.6,2.6,0,0,1,25.24,16.9ZM4.53,2.2H22.47A2.94,2.94,0,0,1,25.3,4.83L15.09,10.75a4.29,4.29,0,0,1-3.52,0L1.68,5A2.94,2.94,0,0,1,4.53,2.2ZM1.73,16.78a2.58,2.58,0,0,1-.05-.49V7l5.45,3.17Zm2.8,2.36a2.83,2.83,0,0,1-1.91-.79L8.6,11l2.14,1.24a4.92,4.92,0,0,0,2.68.67,4.57,4.57,0,0,0,2.68-.67L18.27,11l6,7.4a2.81,2.81,0,0,1-1.84.73Z"/></svg>