<svg id="icojam_unigrid_mini" xmlns="http://www.w3.org/2000/svg" viewBox="0 0 20 28"><title>Векторный смарт-объект</title><path d="M18.66,5.15A9.74,9.74,0,0,0,10,0,10.46,10.46,0,0,0,4.69,1.58C0,4.38-1.36,10.74,1.43,15.55L8,26.73A2.42,2.42,0,0,0,10,28a2.65,2.65,0,0,0,2-1.09l6.67-11.64v-.16A9.88,9.88,0,0,0,18.66,5.15Zm-1.4,9.16v.16L10.59,26a.58.58,0,0,1-.62.47A.58.58,0,0,1,9.35,26L2.83,14.62A8.63,8.63,0,0,1,5.47,2.83,9.35,9.35,0,0,1,10,1.58a8.46,8.46,0,0,1,7.29,12.73Z"/><path d="M10,6.24a3.88,3.88,0,1,0,3.88,3.88A3.84,3.84,0,0,0,10,6.24Zm0,6.21a2.39,2.39,0,0,1-2.33-2.33A2.39,2.39,0,0,1,10,7.79a2.39,2.39,0,0,1,2.33,2.33A2.39,2.39,0,0,1,10,12.45Z"/></svg>