<svg id="icojam_unigrid_mini" xmlns="http://www.w3.org/2000/svg" viewBox="0 0 25 25"><title>Векторный смарт-объект</title><path d="M24.12,17.66,22.06,15.6a2.75,2.75,0,0,0-3.82,0l-.88.88a.71.71,0,0,1-1,0,52.51,52.51,0,0,1-4.11-3.82A35,35,0,0,1,8.41,8.55c-.15-.29-.29-.73,0-1l.88-.88a2.85,2.85,0,0,0,0-3.82L7.23.77a2.75,2.75,0,0,0-3.82,0C0,4.3-.85,8.11,1.36,11A52,52,0,0,0,7.23,18a52,52,0,0,0,6.9,5.87A6.43,6.43,0,0,0,17.8,25c2.2,0,4.41-1.17,6.31-3.52a2.85,2.85,0,0,0,0-3.82Zm-.73,3.08c-2.94,2.94-6,3.52-8.37,1.91a49.9,49.9,0,0,1-6.75-5.73,49.9,49.9,0,0,1-5.73-6.75C.92,7.82,1.5,4.74,4.44,1.8a2.09,2.09,0,0,1,.88-.29,1.27,1.27,0,0,1,.88.44L8.26,4a2.09,2.09,0,0,1,.29.88,1.08,1.08,0,0,1-.29.88l-.88.88a2.22,2.22,0,0,0,0,2.94,56.38,56.38,0,0,0,4,4.26,37.58,37.58,0,0,0,4.26,4,2.22,2.22,0,0,0,2.94,0l.88-.88a1.34,1.34,0,0,1,1.76,0L23.38,19a2.09,2.09,0,0,1,.29.88A1.08,1.08,0,0,1,23.38,20.74Z"/></svg>